<svg width="100%" height="100%" viewBox="120 408 758 185" fill="none" xmlns="http://www.w3.org/2000/svg">

<path d="M752.689 578.457C750.655 578.457 749.638 577.731 749.638 576.278C749.638 574.68 750.728 573.736 752.907 573.445L763.15 571.919C766.056 571.483 768.236 570.757 769.688 569.74C771.141 568.578 772.159 566.471 772.74 563.42L784.508 511.987C784.944 510.243 785.089 508.645 784.944 507.192C784.944 505.739 784.726 504.213 784.29 502.615L767.727 435.491C767.146 433.021 766.347 431.132 765.33 429.824C764.458 428.517 762.86 427.572 760.535 426.991L758.792 426.555C757.048 426.119 756.176 425.247 756.176 423.94C756.176 422.342 757.484 421.543 760.099 421.543H796.059C797.948 421.543 798.892 422.269 798.892 423.722C798.892 425.465 797.439 426.41 794.533 426.555L790.175 426.991C787.705 427.136 785.816 427.935 784.508 429.388C783.201 430.841 782.91 433.093 783.636 436.144L797.367 493.898C797.657 494.915 798.166 495.496 798.892 495.641C799.764 495.641 800.563 495.133 801.289 494.116L839.864 440.721C842.625 436.943 843.787 433.892 843.351 431.568C843.061 429.098 841.245 427.645 837.903 427.209L833.326 426.555C831.292 426.265 830.275 425.393 830.275 423.94C830.275 422.342 831.438 421.543 833.762 421.543H865.145C867.179 421.543 868.196 422.196 868.196 423.504C868.196 425.102 866.961 426.119 864.491 426.555L862.094 426.991C860.06 427.282 858.026 428.517 855.992 430.696C853.958 432.73 851.197 436.144 847.71 440.939L805.866 498.257C804.413 500.291 803.178 502.252 802.161 504.141C801.289 505.884 800.563 507.918 799.982 510.243L787.777 563.42C787.196 566.471 787.269 568.505 787.995 569.522C788.867 570.539 790.683 571.338 793.444 571.919L801.943 573.445C804.123 573.881 805.212 574.68 805.212 575.842C805.212 577.586 803.905 578.457 801.289 578.457H752.689Z" fill="#1D1C1C"/>
<path d="M675.996 580.419C664.663 580.419 655.655 575.77 648.972 566.471C642.433 557.172 639.164 543.515 639.164 525.499C639.164 514.747 640.399 504.214 642.869 493.898C645.339 483.582 648.754 473.993 653.112 465.13C657.471 456.122 662.484 448.204 668.15 441.375C673.962 434.401 680.137 429.025 686.675 425.248C693.358 421.325 700.187 419.363 707.161 419.363C718.494 419.363 727.429 424.013 733.967 433.311C740.651 442.465 743.992 456.122 743.992 474.284C743.992 485.035 742.757 495.569 740.287 505.884C737.817 516.2 734.403 525.862 730.044 534.87C725.685 543.733 720.6 551.651 714.789 558.625C709.122 565.454 702.947 570.83 696.264 574.753C689.726 578.53 682.97 580.419 675.996 580.419ZM675.56 574.753C680.936 574.753 686.166 572.646 691.251 568.432C696.482 564.074 701.349 558.189 705.853 550.78C710.503 543.224 714.571 534.58 718.058 524.845C721.545 514.965 724.233 504.504 726.121 493.462C728.155 482.42 729.172 471.232 729.172 459.9C729.172 436.653 721.981 425.03 707.597 425.03C702.221 425.03 696.918 427.209 691.687 431.568C686.602 435.781 681.735 441.666 677.085 449.221C672.581 456.631 668.586 465.275 665.099 475.155C661.612 484.89 658.851 495.278 656.817 506.32C654.929 517.362 653.984 528.55 653.984 539.883C653.984 563.129 661.176 574.753 675.56 574.753Z" fill="#1D1C1C"/>
<path d="M567.172 580.637C566.591 580.637 566.01 580.419 565.428 579.983C564.847 579.547 564.557 578.603 564.557 577.15L562.159 438.978C562.014 434.909 561.506 432.076 560.634 430.478C559.762 428.88 557.946 427.79 555.185 427.209L552.352 426.555C550.609 426.119 549.737 425.247 549.737 423.94C549.737 422.342 550.972 421.543 553.442 421.543H589.402C591.29 421.543 592.235 422.269 592.235 423.722C592.235 425.32 590.782 426.265 587.876 426.555L583.517 426.991C581.047 427.136 579.304 427.935 578.287 429.388C577.415 430.696 576.979 432.948 576.979 436.144L578.069 539.229C578.069 540.682 578.505 541.481 579.376 541.626C580.248 541.771 580.975 541.263 581.556 540.1L629.284 440.721C633.352 432.439 632.045 427.863 625.361 426.991L622.31 426.555C620.131 426.119 619.041 425.247 619.041 423.94C619.041 422.342 620.276 421.543 622.746 421.543H654.347C656.09 421.543 656.962 422.269 656.962 423.722C656.962 425.03 655.8 425.974 653.475 426.555L649.988 427.209C647.082 427.79 644.612 429.243 642.578 431.568C640.544 433.747 638.51 436.871 636.476 440.939L571.313 577.15C570.732 578.603 570.005 579.547 569.133 579.983C568.407 580.419 567.753 580.637 567.172 580.637Z" fill="#1D1C1C"/>
<path d="M521.886 580.419C519.561 580.419 517.6 578.675 516.002 575.188L456.941 447.041C456.505 446.024 455.924 445.588 455.197 445.734C454.616 445.879 454.326 446.533 454.326 447.695V559.715C454.326 563.783 454.979 566.907 456.287 569.086C457.74 571.12 460.283 572.428 463.915 573.009L466.748 573.445C468.637 573.59 469.581 574.462 469.581 576.06C469.581 577.658 468.492 578.457 466.312 578.457H435.147C432.968 578.457 431.878 577.658 431.878 576.06C431.878 574.462 432.822 573.59 434.711 573.445L437.544 573.009C441.322 572.428 443.937 571.12 445.39 569.086C446.843 566.907 447.57 563.783 447.57 559.715V435.926C447.57 432.875 447.061 430.841 446.044 429.824C445.172 428.807 443.065 428.008 439.724 427.427L434.711 426.555C432.822 426.119 431.878 425.247 431.878 423.94C431.878 422.342 432.968 421.543 435.147 421.543H458.466C462.099 421.543 464.641 423.141 466.094 426.337L517.527 539.447C517.963 540.318 518.472 540.682 519.053 540.536C519.779 540.391 520.143 539.883 520.143 539.011V440.285C520.143 435.636 519.344 432.439 517.745 430.696C516.147 428.807 514.113 427.645 511.643 427.209L507.72 426.555C505.831 426.119 504.887 425.247 504.887 423.94C504.887 422.342 505.977 421.543 508.156 421.543H539.321C541.501 421.543 542.59 422.342 542.59 423.94C542.59 425.538 541.646 426.41 539.757 426.555L536.924 426.991C533.146 427.572 530.531 428.807 529.078 430.696C527.625 432.439 526.899 435.636 526.899 440.285V573.445C526.899 576.06 526.39 577.876 525.373 578.893C524.501 579.91 523.339 580.419 521.886 580.419Z" fill="#1D1C1C"/>
<path d="M330.261 578.458C328.082 578.458 326.992 577.731 326.992 576.278C326.992 574.825 328.009 573.881 330.043 573.445L333.312 572.791C336.218 572.21 338.398 570.83 339.851 568.65C341.303 566.326 342.538 563.129 343.556 559.061L377.336 422.85C377.626 421.397 378.062 420.453 378.643 420.017C379.37 419.581 380.024 419.363 380.605 419.363C381.331 419.363 381.985 419.581 382.566 420.017C383.293 420.453 383.801 421.397 384.092 422.85L418.526 561.023C419.543 565.091 420.705 567.924 422.013 569.522C423.321 571.12 425.355 572.21 428.115 572.791L431.384 573.445C433.418 573.881 434.435 574.825 434.435 576.278C434.435 577.731 433.346 578.458 431.166 578.458H393.899C391.865 578.458 390.848 577.658 390.848 576.06C390.848 574.462 392.083 573.59 394.553 573.445L398.694 573.009C401.164 572.719 402.689 571.919 403.27 570.612C403.997 569.304 403.997 567.052 403.27 563.856L394.989 530.075C394.117 526.298 391.72 524.409 387.797 524.409H364.913C361.136 524.409 358.738 526.298 357.721 530.075L350.312 559.279C348.132 567.561 350.312 572.137 356.85 573.009L360.119 573.445C362.589 573.881 363.824 574.753 363.824 576.06C363.824 577.658 362.807 578.458 360.773 578.458H330.261ZM364.26 517.871H388.233C390.557 517.871 391.502 516.636 391.066 514.166L377.118 455.759H376.028L361.426 514.166C360.991 516.636 361.935 517.871 364.26 517.871Z" fill="#1D1C1C"/>
<path d="M328.106 580.419C315.465 580.419 307.402 572.137 303.915 555.574L298.902 531.383C297.304 523.537 295.488 517.58 293.454 513.512C291.565 509.444 288.877 506.683 285.39 505.23C282.048 503.778 277.399 503.051 271.442 503.051C269.408 503.051 267.81 503.632 266.648 504.795C265.485 505.812 264.904 507.119 264.904 508.717V563.202C264.904 566.253 265.485 568.36 266.648 569.522C267.81 570.539 270.425 571.411 274.493 572.137L282.557 573.445C284.155 573.736 284.954 574.535 284.954 575.842C284.954 577.586 283.865 578.457 281.685 578.457H237.444C235.265 578.457 234.175 577.658 234.175 576.06C234.175 574.753 235.119 573.881 237.008 573.445L242.021 572.573C245.072 571.992 247.033 571.193 247.905 570.176C248.922 569.159 249.43 567.125 249.43 564.074V435.926C249.43 432.875 248.922 430.841 247.905 429.824C247.033 428.807 245.072 428.008 242.021 427.427L237.008 426.555C235.119 426.119 234.175 425.247 234.175 423.94C234.175 422.342 235.265 421.543 237.444 421.543H281.685C290.257 421.543 297.885 423.213 304.569 426.555C311.252 429.897 316.483 434.546 320.26 440.503C324.038 446.315 325.926 453.071 325.926 460.771C325.926 469.925 323.166 478.206 317.645 485.616C312.124 492.881 305.15 498.039 296.723 501.09C295.706 501.38 295.125 501.889 294.979 502.615C294.979 503.196 295.488 503.705 296.505 504.141C301.154 506.32 304.787 509.371 307.402 513.294C310.162 517.217 312.269 522.448 313.722 528.986L318.517 551.215C320.115 558.77 322.004 564.146 324.183 567.343C326.362 570.539 329.123 572.137 332.465 572.137C333.627 572.137 334.644 571.992 335.516 571.701C336.533 571.266 337.768 570.539 339.221 569.522C340.383 568.796 341.473 568.65 342.49 569.086C343.507 569.377 344.015 570.103 344.015 571.266C344.015 573.735 342.417 575.915 339.221 577.804C336.024 579.547 332.319 580.419 328.106 580.419ZM279.506 497.603C289.386 497.603 296.868 494.334 301.953 487.796C307.039 481.112 309.581 472.249 309.581 461.207C309.581 450.456 306.603 442.101 300.646 436.144C294.834 430.042 286.77 426.991 276.455 426.991C268.754 426.991 264.904 429.897 264.904 435.708V485.616C264.904 493.607 269.771 497.603 279.506 497.603Z" fill="#1D1C1C"/>
<path d="M135.073 578.457C132.894 578.457 131.804 577.658 131.804 576.06C131.804 574.753 132.748 573.881 134.637 573.445L139.65 572.573C142.701 571.992 144.662 571.193 145.534 570.176C146.551 569.159 147.059 567.125 147.059 564.074V435.926C147.059 432.875 146.551 430.841 145.534 429.824C144.662 428.807 142.701 428.008 139.65 427.427L134.637 426.555C132.748 426.119 131.804 425.247 131.804 423.94C131.804 422.342 132.894 421.543 135.073 421.543H179.314C186.579 421.543 193.044 423.068 198.711 426.119C204.377 429.17 208.808 433.311 212.005 438.542C215.346 443.772 217.017 449.729 217.017 456.413C217.017 462.951 215.056 469.053 211.133 474.719C207.355 480.24 201.834 484.89 194.57 488.667C193.698 489.103 193.262 489.684 193.262 490.411C193.262 491.137 193.771 491.646 194.788 491.936C204.668 495.278 212.295 500.654 217.671 508.064C223.047 515.328 225.735 523.973 225.735 533.998C225.735 542.57 223.773 550.271 219.851 557.1C215.928 563.783 210.479 569.014 203.505 572.791C196.677 576.569 188.903 578.457 180.186 578.457H135.073ZM174.084 488.885C181.784 488.885 188.177 485.907 193.262 479.95C198.493 473.848 201.108 466.292 201.108 457.284C201.108 448.276 198.638 441.012 193.698 435.491C188.758 429.824 182.22 426.991 174.084 426.991C166.383 426.991 162.533 429.897 162.533 435.708V476.899C162.533 481.112 163.405 484.163 165.148 486.052C167.037 487.941 170.016 488.885 174.084 488.885ZM177.353 573.009C186.797 573.009 194.497 569.449 200.454 562.33C206.411 555.066 209.39 545.404 209.39 533.344C209.39 521.285 206.338 511.769 200.236 504.795C194.279 497.821 186.216 494.334 176.045 494.334C167.037 494.334 162.533 497.893 162.533 505.013V557.971C162.533 567.996 167.473 573.009 177.353 573.009Z" fill="#1D1C1C"/>
<path d="M689.807 474.773C690.232 472.884 692.925 472.884 693.35 474.773L696.678 489.548C696.833 490.232 697.367 490.767 698.051 490.921L712.826 494.249C714.716 494.675 714.716 497.367 712.826 497.793L698.051 501.121C697.367 501.275 696.833 501.809 696.678 502.494L693.35 517.269C692.925 519.158 690.232 519.158 689.807 517.269L686.478 502.494C686.324 501.809 685.79 501.275 685.106 501.121L670.331 497.793C668.441 497.367 668.441 494.675 670.331 494.249L685.106 490.921C685.79 490.767 686.324 490.232 686.478 489.548L689.807 474.773Z" fill="#0081FE"/>
</svg>
